<mxfile host="app.diagrams.net" modified="2022-05-05T12:56:46.098Z" agent="5.0 (X11; Linux x86_64) AppleWebKit/537.36 (KHTML, like Gecko) Chrome/100.0.4896.127 Safari/537.36" etag="X4XUZwt8i9OdK_znflZQ" version="18.0.0" type="github">
  <diagram id="VO1edz8Nnaig1ZacYhP6" name="Page-1">
    <mxGraphModel dx="4957" dy="3111" grid="1" gridSize="10" guides="1" tooltips="1" connect="1" arrows="1" fold="1" page="1" pageScale="1" pageWidth="827" pageHeight="1169" math="0" shadow="0">
      <root>
        <mxCell id="0" />
        <mxCell id="1" parent="0" />
        <mxCell id="WKZoduUk9wr_u4HZvVCL-1" value="B position reached &lt;br&gt;without collisions&lt;br&gt;(task_completed == bool)" style="shape=parallelogram;perimeter=parallelogramPerimeter;whiteSpace=wrap;html=1;fixedSize=1;enumerate=1;" vertex="1" parent="1">
          <mxGeometry x="-150" y="-1040" width="180" height="60" as="geometry" />
        </mxCell>
        <mxCell id="WKZoduUk9wr_u4HZvVCL-2" value="Perceived env&lt;br&gt;(dynamic_map_available == bool&lt;br&gt;or&lt;br&gt;time_from_last_map_update)" style="shape=parallelogram;perimeter=parallelogramPerimeter;whiteSpace=wrap;html=1;fixedSize=1;enumerate=1;" vertex="1" parent="1">
          <mxGeometry x="-810" y="-890" width="230" height="60" as="geometry" />
        </mxCell>
        <mxCell id="WKZoduUk9wr_u4HZvVCL-3" value="Collision-free trajectpry planed&lt;br&gt;(traj_status == &quot;ok&quot;/ &quot;delayed&quot;/&lt;br&gt;&quot;not_updated&quot;/ &quot;not_exist&quot;/ &quot;incomplete&quot;)" style="shape=parallelogram;perimeter=parallelogramPerimeter;whiteSpace=wrap;html=1;fixedSize=1;arcSize=20;enumerate=1;" vertex="1" parent="1">
          <mxGeometry x="200" y="-890" width="340" height="60" as="geometry" />
        </mxCell>
        <mxCell id="WKZoduUk9wr_u4HZvVCL-4" value="Perceived self status&lt;br&gt;(self_status == &quot;OK&quot;/&lt;br&gt;&quot;Warning&quot;/&quot;Critcal&quot;)" style="shape=parallelogram;perimeter=parallelogramPerimeter;whiteSpace=wrap;html=1;fixedSize=1;enumerate=1;" vertex="1" parent="1">
          <mxGeometry x="-170" y="-890" width="220" height="60" as="geometry" />
        </mxCell>
        <mxCell id="WKZoduUk9wr_u4HZvVCL-7" value="Perceive position&lt;br&gt;(time_from_last_update &amp;lt; t_pos)" style="shape=parallelogram;perimeter=parallelogramPerimeter;whiteSpace=wrap;html=1;fixedSize=1;enumerate=1;" vertex="1" parent="1">
          <mxGeometry x="-90" y="-660" width="210" height="60" as="geometry" />
        </mxCell>
        <mxCell id="WKZoduUk9wr_u4HZvVCL-8" value="Sensors status perceived&lt;br&gt;(sensor_status =&amp;nbsp;&lt;br&gt;v= &amp;lt;&amp;lt;s1==ok&amp;gt;,&lt;br&gt;&amp;lt;s2==ok&amp;gt;,&lt;br&gt;.&lt;br&gt;.&lt;br&gt;.&lt;br&gt;&amp;lt;sn == ok&amp;gt;&amp;gt;)&lt;br&gt;ok/warn/critical" style="shape=parallelogram;perimeter=parallelogramPerimeter;whiteSpace=wrap;html=1;fixedSize=1;enumerate=1;" vertex="1" parent="1">
          <mxGeometry x="-280" y="-720" width="190" height="170" as="geometry" />
        </mxCell>
        <mxCell id="WKZoduUk9wr_u4HZvVCL-20" style="edgeStyle=orthogonalEdgeStyle;rounded=0;orthogonalLoop=1;jettySize=auto;html=1;exitX=0.5;exitY=0;exitDx=0;exitDy=0;" edge="1" parent="1" source="WKZoduUk9wr_u4HZvVCL-9" target="WKZoduUk9wr_u4HZvVCL-4">
          <mxGeometry relative="1" as="geometry" />
        </mxCell>
        <mxCell id="WKZoduUk9wr_u4HZvVCL-9" value="" style="ellipse;whiteSpace=wrap;html=1;aspect=fixed;" vertex="1" parent="1">
          <mxGeometry x="-70" y="-750" width="20" height="20" as="geometry" />
        </mxCell>
        <mxCell id="WKZoduUk9wr_u4HZvVCL-17" style="edgeStyle=orthogonalEdgeStyle;rounded=0;orthogonalLoop=1;jettySize=auto;html=1;exitX=0.5;exitY=0;exitDx=0;exitDy=0;entryX=0.5;entryY=1;entryDx=0;entryDy=0;" edge="1" parent="1" source="WKZoduUk9wr_u4HZvVCL-11" target="WKZoduUk9wr_u4HZvVCL-1">
          <mxGeometry relative="1" as="geometry" />
        </mxCell>
        <mxCell id="WKZoduUk9wr_u4HZvVCL-11" value="" style="ellipse;whiteSpace=wrap;html=1;aspect=fixed;" vertex="1" parent="1">
          <mxGeometry x="-70" y="-930" width="20" height="20" as="geometry" />
        </mxCell>
        <mxCell id="WKZoduUk9wr_u4HZvVCL-13" value="" style="endArrow=none;html=1;rounded=0;exitX=0.5;exitY=0;exitDx=0;exitDy=0;entryX=0;entryY=0.5;entryDx=0;entryDy=0;" edge="1" parent="1" source="WKZoduUk9wr_u4HZvVCL-2" target="WKZoduUk9wr_u4HZvVCL-11">
          <mxGeometry width="50" height="50" relative="1" as="geometry">
            <mxPoint x="-90" y="-440" as="sourcePoint" />
            <mxPoint x="-40" y="-490" as="targetPoint" />
          </mxGeometry>
        </mxCell>
        <mxCell id="WKZoduUk9wr_u4HZvVCL-15" value="" style="endArrow=none;html=1;rounded=0;entryX=0.5;entryY=1;entryDx=0;entryDy=0;" edge="1" parent="1" source="WKZoduUk9wr_u4HZvVCL-4" target="WKZoduUk9wr_u4HZvVCL-11">
          <mxGeometry width="50" height="50" relative="1" as="geometry">
            <mxPoint x="-84" y="-440" as="sourcePoint" />
            <mxPoint x="-34" y="-490" as="targetPoint" />
          </mxGeometry>
        </mxCell>
        <mxCell id="WKZoduUk9wr_u4HZvVCL-16" value="" style="endArrow=none;html=1;rounded=0;entryX=1;entryY=0.5;entryDx=0;entryDy=0;exitX=0.5;exitY=0;exitDx=0;exitDy=0;" edge="1" parent="1" source="WKZoduUk9wr_u4HZvVCL-3" target="WKZoduUk9wr_u4HZvVCL-11">
          <mxGeometry width="50" height="50" relative="1" as="geometry">
            <mxPoint x="-90" y="-440" as="sourcePoint" />
            <mxPoint x="-40" y="-490" as="targetPoint" />
          </mxGeometry>
        </mxCell>
        <mxCell id="WKZoduUk9wr_u4HZvVCL-21" value="" style="endArrow=none;html=1;rounded=0;entryX=0;entryY=0.5;entryDx=0;entryDy=0;exitX=0.5;exitY=0;exitDx=0;exitDy=0;" edge="1" parent="1" source="WKZoduUk9wr_u4HZvVCL-8" target="WKZoduUk9wr_u4HZvVCL-9">
          <mxGeometry width="50" height="50" relative="1" as="geometry">
            <mxPoint x="-110" y="-430" as="sourcePoint" />
            <mxPoint x="-60" y="-480" as="targetPoint" />
          </mxGeometry>
        </mxCell>
        <mxCell id="WKZoduUk9wr_u4HZvVCL-25" value="" style="endArrow=none;html=1;rounded=0;entryX=1;entryY=0.5;entryDx=0;entryDy=0;exitX=0.5;exitY=0;exitDx=0;exitDy=0;" edge="1" parent="1" source="WKZoduUk9wr_u4HZvVCL-7" target="WKZoduUk9wr_u4HZvVCL-9">
          <mxGeometry width="50" height="50" relative="1" as="geometry">
            <mxPoint x="-110" y="-430" as="sourcePoint" />
            <mxPoint x="-60" y="-480" as="targetPoint" />
          </mxGeometry>
        </mxCell>
        <mxCell id="WKZoduUk9wr_u4HZvVCL-26" value="&lt;span style=&quot;&quot;&gt;Static obstacle map perceived&lt;/span&gt;&lt;br style=&quot;&quot;&gt;&lt;span style=&quot;&quot;&gt;(static_map == &quot;OK&quot;,&quot;not_updated&quot;,&quot;not_exist&quot;)&lt;/span&gt;" style="shape=parallelogram;perimeter=parallelogramPerimeter;whiteSpace=wrap;html=1;fixedSize=1;enumerate=1;" vertex="1" parent="1">
          <mxGeometry x="-700" y="-670" width="220" height="60" as="geometry" />
        </mxCell>
        <mxCell id="WKZoduUk9wr_u4HZvVCL-27" value="Dynamic obstacles perceived&lt;br&gt;(time_from_last_update &amp;lt; t)" style="shape=parallelogram;perimeter=parallelogramPerimeter;whiteSpace=wrap;html=1;fixedSize=1;enumerate=1;" vertex="1" parent="1">
          <mxGeometry x="-1029" y="-680" width="226" height="60" as="geometry" />
        </mxCell>
        <mxCell id="WKZoduUk9wr_u4HZvVCL-31" style="edgeStyle=none;rounded=0;orthogonalLoop=1;jettySize=auto;html=1;exitX=0.5;exitY=0;exitDx=0;exitDy=0;entryX=0.435;entryY=1;entryDx=0;entryDy=0;entryPerimeter=0;" edge="1" parent="1" source="WKZoduUk9wr_u4HZvVCL-28" target="WKZoduUk9wr_u4HZvVCL-2">
          <mxGeometry relative="1" as="geometry" />
        </mxCell>
        <mxCell id="WKZoduUk9wr_u4HZvVCL-28" value="" style="ellipse;whiteSpace=wrap;html=1;aspect=fixed;" vertex="1" parent="1">
          <mxGeometry x="-724" y="-760" width="20" height="20" as="geometry" />
        </mxCell>
        <mxCell id="WKZoduUk9wr_u4HZvVCL-29" value="" style="endArrow=none;html=1;rounded=0;entryX=0;entryY=0.5;entryDx=0;entryDy=0;exitX=0.5;exitY=0;exitDx=0;exitDy=0;" edge="1" parent="1" source="WKZoduUk9wr_u4HZvVCL-27" target="WKZoduUk9wr_u4HZvVCL-28">
          <mxGeometry width="50" height="50" relative="1" as="geometry">
            <mxPoint x="-764" y="-440" as="sourcePoint" />
            <mxPoint x="-714" y="-490" as="targetPoint" />
          </mxGeometry>
        </mxCell>
        <mxCell id="WKZoduUk9wr_u4HZvVCL-30" value="" style="endArrow=none;html=1;rounded=0;entryX=1;entryY=0.5;entryDx=0;entryDy=0;exitX=0.5;exitY=0;exitDx=0;exitDy=0;" edge="1" parent="1" source="WKZoduUk9wr_u4HZvVCL-26" target="WKZoduUk9wr_u4HZvVCL-28">
          <mxGeometry width="50" height="50" relative="1" as="geometry">
            <mxPoint x="-764" y="-440" as="sourcePoint" />
            <mxPoint x="-714" y="-490" as="targetPoint" />
          </mxGeometry>
        </mxCell>
        <mxCell id="WKZoduUk9wr_u4HZvVCL-32" value="trajectory to B identified&lt;br&gt;(path_lenght_to_B = sum(segment_of_traj))" style="shape=parallelogram;perimeter=parallelogramPerimeter;whiteSpace=wrap;html=1;fixedSize=1;enumerate=1;" vertex="1" parent="1">
          <mxGeometry x="384" y="-665" width="196" height="60" as="geometry" />
        </mxCell>
        <mxCell id="WKZoduUk9wr_u4HZvVCL-33" value="safe distance to obs mantained&lt;br&gt;(d(&lt;b&gt;obs&lt;/b&gt;) &amp;lt; &lt;b&gt;x&lt;/b&gt;)&lt;br&gt;&lt;b&gt;obs&lt;/b&gt;&amp;nbsp;vector of obs" style="shape=parallelogram;perimeter=parallelogramPerimeter;whiteSpace=wrap;html=1;fixedSize=1;enumerate=1;" vertex="1" parent="1">
          <mxGeometry x="190" y="-665" width="150" height="60" as="geometry" />
        </mxCell>
        <mxCell id="WKZoduUk9wr_u4HZvVCL-37" style="edgeStyle=none;rounded=0;orthogonalLoop=1;jettySize=auto;html=1;exitX=0.5;exitY=0;exitDx=0;exitDy=0;entryX=0.5;entryY=1;entryDx=0;entryDy=0;" edge="1" parent="1" source="WKZoduUk9wr_u4HZvVCL-34" target="WKZoduUk9wr_u4HZvVCL-3">
          <mxGeometry relative="1" as="geometry" />
        </mxCell>
        <mxCell id="WKZoduUk9wr_u4HZvVCL-34" value="" style="ellipse;whiteSpace=wrap;html=1;aspect=fixed;" vertex="1" parent="1">
          <mxGeometry x="360" y="-755" width="20" height="20" as="geometry" />
        </mxCell>
        <mxCell id="WKZoduUk9wr_u4HZvVCL-35" value="" style="endArrow=none;html=1;rounded=0;entryX=0;entryY=0.5;entryDx=0;entryDy=0;exitX=0.5;exitY=0;exitDx=0;exitDy=0;" edge="1" parent="1" source="WKZoduUk9wr_u4HZvVCL-33" target="WKZoduUk9wr_u4HZvVCL-34">
          <mxGeometry width="50" height="50" relative="1" as="geometry">
            <mxPoint x="320" y="-435" as="sourcePoint" />
            <mxPoint x="370" y="-485" as="targetPoint" />
          </mxGeometry>
        </mxCell>
        <mxCell id="WKZoduUk9wr_u4HZvVCL-36" value="" style="endArrow=none;html=1;rounded=0;entryX=1;entryY=0.5;entryDx=0;entryDy=0;exitX=0.5;exitY=0;exitDx=0;exitDy=0;" edge="1" parent="1" source="WKZoduUk9wr_u4HZvVCL-32" target="WKZoduUk9wr_u4HZvVCL-34">
          <mxGeometry width="50" height="50" relative="1" as="geometry">
            <mxPoint x="320" y="-435" as="sourcePoint" />
            <mxPoint x="370" y="-485" as="targetPoint" />
          </mxGeometry>
        </mxCell>
        <mxCell id="WKZoduUk9wr_u4HZvVCL-45" style="edgeStyle=none;rounded=0;orthogonalLoop=1;jettySize=auto;html=1;exitX=0;exitY=0.5;exitDx=0;exitDy=0;entryX=0.5;entryY=1;entryDx=0;entryDy=0;" edge="1" parent="1" source="WKZoduUk9wr_u4HZvVCL-121" target="WKZoduUk9wr_u4HZvVCL-33">
          <mxGeometry relative="1" as="geometry">
            <mxPoint x="74" y="-465" as="sourcePoint" />
          </mxGeometry>
        </mxCell>
        <mxCell id="WKZoduUk9wr_u4HZvVCL-49" style="edgeStyle=none;rounded=0;orthogonalLoop=1;jettySize=auto;html=1;exitX=1;exitY=0.5;exitDx=0;exitDy=0;entryX=0.5;entryY=1;entryDx=0;entryDy=0;" edge="1" parent="1" source="WKZoduUk9wr_u4HZvVCL-121" target="WKZoduUk9wr_u4HZvVCL-32">
          <mxGeometry relative="1" as="geometry">
            <mxPoint x="440" y="-495" as="sourcePoint" />
          </mxGeometry>
        </mxCell>
        <mxCell id="WKZoduUk9wr_u4HZvVCL-50" value="s1 status&lt;br&gt;(status_s1 == ok)" style="shape=parallelogram;perimeter=parallelogramPerimeter;whiteSpace=wrap;html=1;fixedSize=1;enumerate=1;" vertex="1" parent="1">
          <mxGeometry x="-440" y="-430" width="140" height="60" as="geometry" />
        </mxCell>
        <mxCell id="WKZoduUk9wr_u4HZvVCL-51" value="s_n status&lt;br&gt;(status_sn == ok)" style="shape=parallelogram;perimeter=parallelogramPerimeter;whiteSpace=wrap;html=1;fixedSize=1;enumerate=1;" vertex="1" parent="1">
          <mxGeometry x="-195" y="-430" width="130" height="60" as="geometry" />
        </mxCell>
        <mxCell id="WKZoduUk9wr_u4HZvVCL-52" value="s2_status" style="shape=parallelogram;perimeter=parallelogramPerimeter;whiteSpace=wrap;html=1;fixedSize=1;enumerate=1;" vertex="1" parent="1">
          <mxGeometry x="-310" y="-430" width="80" height="60" as="geometry" />
        </mxCell>
        <mxCell id="WKZoduUk9wr_u4HZvVCL-97" style="edgeStyle=none;rounded=0;orthogonalLoop=1;jettySize=auto;html=1;exitX=0.5;exitY=0;exitDx=0;exitDy=0;entryX=0.25;entryY=1;entryDx=0;entryDy=0;endArrow=block;endFill=0;" edge="1" parent="1" source="WKZoduUk9wr_u4HZvVCL-53" target="WKZoduUk9wr_u4HZvVCL-8">
          <mxGeometry relative="1" as="geometry" />
        </mxCell>
        <mxCell id="WKZoduUk9wr_u4HZvVCL-53" value="" style="ellipse;whiteSpace=wrap;html=1;aspect=fixed;" vertex="1" parent="1">
          <mxGeometry x="-246" y="-490" width="20" height="20" as="geometry" />
        </mxCell>
        <mxCell id="WKZoduUk9wr_u4HZvVCL-54" value="" style="endArrow=none;html=1;rounded=0;exitX=0.5;exitY=0;exitDx=0;exitDy=0;entryX=0;entryY=0.5;entryDx=0;entryDy=0;" edge="1" parent="1" source="WKZoduUk9wr_u4HZvVCL-50" target="WKZoduUk9wr_u4HZvVCL-53">
          <mxGeometry width="50" height="50" relative="1" as="geometry">
            <mxPoint x="-260" as="sourcePoint" />
            <mxPoint x="-210" y="-50" as="targetPoint" />
          </mxGeometry>
        </mxCell>
        <mxCell id="WKZoduUk9wr_u4HZvVCL-55" value="" style="endArrow=none;html=1;rounded=0;entryX=0.5;entryY=1;entryDx=0;entryDy=0;" edge="1" parent="1" source="WKZoduUk9wr_u4HZvVCL-52" target="WKZoduUk9wr_u4HZvVCL-53">
          <mxGeometry width="50" height="50" relative="1" as="geometry">
            <mxPoint x="-260" as="sourcePoint" />
            <mxPoint x="-210" y="-50" as="targetPoint" />
          </mxGeometry>
        </mxCell>
        <mxCell id="WKZoduUk9wr_u4HZvVCL-56" value="" style="endArrow=none;html=1;rounded=0;entryX=1;entryY=0.5;entryDx=0;entryDy=0;exitX=0.5;exitY=0;exitDx=0;exitDy=0;" edge="1" parent="1" source="WKZoduUk9wr_u4HZvVCL-51" target="WKZoduUk9wr_u4HZvVCL-53">
          <mxGeometry width="50" height="50" relative="1" as="geometry">
            <mxPoint x="-260" as="sourcePoint" />
            <mxPoint x="-210" y="-50" as="targetPoint" />
          </mxGeometry>
        </mxCell>
        <mxCell id="WKZoduUk9wr_u4HZvVCL-57" value="" style="endArrow=none;dashed=1;html=1;dashPattern=1 3;strokeWidth=2;rounded=0;entryX=1;entryY=0.5;entryDx=0;entryDy=0;exitX=0;exitY=0.5;exitDx=0;exitDy=0;" edge="1" parent="1" source="WKZoduUk9wr_u4HZvVCL-51" target="WKZoduUk9wr_u4HZvVCL-52">
          <mxGeometry width="50" height="50" relative="1" as="geometry">
            <mxPoint x="-110" y="-210" as="sourcePoint" />
            <mxPoint x="-80" y="-550" as="targetPoint" />
          </mxGeometry>
        </mxCell>
        <mxCell id="WKZoduUk9wr_u4HZvVCL-58" value="Robot --&amp;gt; &quot;R&quot;" style="text;html=1;strokeColor=none;fillColor=none;align=left;verticalAlign=middle;whiteSpace=wrap;rounded=0;" vertex="1" parent="1">
          <mxGeometry x="-575" y="-1100" width="84" height="30" as="geometry" />
        </mxCell>
        <mxCell id="WKZoduUk9wr_u4HZvVCL-59" value="Environement --&amp;gt; &quot;env&quot;&lt;br&gt;&lt;div style=&quot;&quot;&gt;&lt;span style=&quot;background-color: initial;&quot;&gt;- Goal position --&amp;gt; &lt;/span&gt;&lt;span style=&quot;background-color: initial;&quot;&gt;B&lt;/span&gt;&lt;/div&gt;- Static Obstacles/ Map (walls/boxes/etc)&lt;br&gt;- Mobile Obstacles (people/animals, other robots)" style="text;html=1;strokeColor=none;fillColor=none;align=left;verticalAlign=middle;whiteSpace=wrap;rounded=0;" vertex="1" parent="1">
          <mxGeometry x="-575" y="-1050" width="390" height="70" as="geometry" />
        </mxCell>
        <mxCell id="WKZoduUk9wr_u4HZvVCL-62" value="Objects position obtained &amp;lt;x,y,z&amp;gt;&lt;br&gt;(confidence of object position)&amp;nbsp;" style="shape=parallelogram;perimeter=parallelogramPerimeter;whiteSpace=wrap;html=1;fixedSize=1;enumerate=1;" vertex="1" parent="1">
          <mxGeometry x="-1220" y="-440" width="220" height="60" as="geometry" />
        </mxCell>
        <mxCell id="WKZoduUk9wr_u4HZvVCL-63" value="Objects velocity &lt;br&gt;obtained &amp;lt;x&#39;,y&#39;,z&#39;&amp;gt;&lt;br&gt;(confidence of object velocity)" style="shape=parallelogram;perimeter=parallelogramPerimeter;whiteSpace=wrap;html=1;fixedSize=1;enumerate=1;" vertex="1" parent="1">
          <mxGeometry x="-840" y="-440" width="190" height="60" as="geometry" />
        </mxCell>
        <mxCell id="WKZoduUk9wr_u4HZvVCL-64" value="Objects type defined&lt;br&gt;(distribution probability of object_type)&amp;nbsp;" style="shape=parallelogram;perimeter=parallelogramPerimeter;whiteSpace=wrap;html=1;fixedSize=1;enumerate=1;" vertex="1" parent="1">
          <mxGeometry x="-1010" y="-440" width="180" height="60" as="geometry" />
        </mxCell>
        <mxCell id="WKZoduUk9wr_u4HZvVCL-78" style="edgeStyle=none;rounded=0;orthogonalLoop=1;jettySize=auto;html=1;exitX=0.5;exitY=0;exitDx=0;exitDy=0;entryX=0.5;entryY=1;entryDx=0;entryDy=0;" edge="1" parent="1" source="WKZoduUk9wr_u4HZvVCL-65" target="WKZoduUk9wr_u4HZvVCL-27">
          <mxGeometry relative="1" as="geometry" />
        </mxCell>
        <mxCell id="WKZoduUk9wr_u4HZvVCL-65" value="" style="ellipse;whiteSpace=wrap;html=1;aspect=fixed;" vertex="1" parent="1">
          <mxGeometry x="-926" y="-500" width="20" height="20" as="geometry" />
        </mxCell>
        <mxCell id="WKZoduUk9wr_u4HZvVCL-66" value="" style="endArrow=none;html=1;rounded=0;exitX=0.5;exitY=0;exitDx=0;exitDy=0;entryX=0;entryY=0.5;entryDx=0;entryDy=0;" edge="1" parent="1" source="WKZoduUk9wr_u4HZvVCL-62" target="WKZoduUk9wr_u4HZvVCL-65">
          <mxGeometry width="50" height="50" relative="1" as="geometry">
            <mxPoint x="-940" y="-10" as="sourcePoint" />
            <mxPoint x="-890" y="-60" as="targetPoint" />
          </mxGeometry>
        </mxCell>
        <mxCell id="WKZoduUk9wr_u4HZvVCL-67" value="" style="endArrow=none;html=1;rounded=0;entryX=0.5;entryY=1;entryDx=0;entryDy=0;" edge="1" parent="1" source="WKZoduUk9wr_u4HZvVCL-64" target="WKZoduUk9wr_u4HZvVCL-65">
          <mxGeometry width="50" height="50" relative="1" as="geometry">
            <mxPoint x="-940" y="-10" as="sourcePoint" />
            <mxPoint x="-890" y="-60" as="targetPoint" />
          </mxGeometry>
        </mxCell>
        <mxCell id="WKZoduUk9wr_u4HZvVCL-68" value="" style="endArrow=none;html=1;rounded=0;entryX=1;entryY=0.5;entryDx=0;entryDy=0;exitX=0.5;exitY=0;exitDx=0;exitDy=0;" edge="1" parent="1" source="WKZoduUk9wr_u4HZvVCL-63" target="WKZoduUk9wr_u4HZvVCL-65">
          <mxGeometry width="50" height="50" relative="1" as="geometry">
            <mxPoint x="-940" y="-10" as="sourcePoint" />
            <mxPoint x="-890" y="-60" as="targetPoint" />
          </mxGeometry>
        </mxCell>
        <mxCell id="WKZoduUk9wr_u4HZvVCL-69" value="map of env built and updated&lt;br&gt;(time_from_last_update &amp;lt; t_map_update)" style="shape=parallelogram;perimeter=parallelogramPerimeter;whiteSpace=wrap;html=1;fixedSize=1;enumerate=1;" vertex="1" parent="1">
          <mxGeometry x="-650" y="-440" width="186" height="60" as="geometry" />
        </mxCell>
        <mxCell id="WKZoduUk9wr_u4HZvVCL-72" style="edgeStyle=none;rounded=0;orthogonalLoop=1;jettySize=auto;html=1;exitX=0.5;exitY=0;exitDx=0;exitDy=0;entryX=0.436;entryY=1;entryDx=0;entryDy=0;entryPerimeter=0;" edge="1" parent="1" source="WKZoduUk9wr_u4HZvVCL-70" target="WKZoduUk9wr_u4HZvVCL-26">
          <mxGeometry relative="1" as="geometry" />
        </mxCell>
        <mxCell id="WKZoduUk9wr_u4HZvVCL-70" value="" style="ellipse;whiteSpace=wrap;html=1;aspect=fixed;" vertex="1" parent="1">
          <mxGeometry x="-583" y="-530" width="20" height="20" as="geometry" />
        </mxCell>
        <mxCell id="WKZoduUk9wr_u4HZvVCL-71" value="" style="endArrow=none;html=1;rounded=0;entryX=0.5;entryY=1;entryDx=0;entryDy=0;exitX=0.5;exitY=0;exitDx=0;exitDy=0;" edge="1" parent="1" source="WKZoduUk9wr_u4HZvVCL-69" target="WKZoduUk9wr_u4HZvVCL-70">
          <mxGeometry width="50" height="50" relative="1" as="geometry">
            <mxPoint x="-730" y="-210" as="sourcePoint" />
            <mxPoint x="-680" y="-260" as="targetPoint" />
          </mxGeometry>
        </mxCell>
        <mxCell id="WKZoduUk9wr_u4HZvVCL-73" value="SLAM Algorithm" style="shape=hexagon;perimeter=hexagonPerimeter2;whiteSpace=wrap;html=1;fixedSize=1;treeFolding=0;comic=0;" vertex="1" parent="1">
          <mxGeometry x="-617" y="-250" width="120" height="80" as="geometry" />
        </mxCell>
        <mxCell id="WKZoduUk9wr_u4HZvVCL-76" style="edgeStyle=none;rounded=0;orthogonalLoop=1;jettySize=auto;html=1;exitX=0.5;exitY=0;exitDx=0;exitDy=0;entryX=0.5;entryY=1;entryDx=0;entryDy=0;" edge="1" parent="1" source="WKZoduUk9wr_u4HZvVCL-75" target="WKZoduUk9wr_u4HZvVCL-69">
          <mxGeometry relative="1" as="geometry" />
        </mxCell>
        <mxCell id="WKZoduUk9wr_u4HZvVCL-75" value="" style="ellipse;whiteSpace=wrap;html=1;aspect=fixed;strokeColor=#000000;fillColor=#FF0000;" vertex="1" parent="1">
          <mxGeometry x="-567" y="-320" width="20" height="20" as="geometry" />
        </mxCell>
        <mxCell id="WKZoduUk9wr_u4HZvVCL-77" value="" style="endArrow=none;html=1;rounded=0;entryX=0.5;entryY=0;entryDx=0;entryDy=0;exitX=0.5;exitY=1;exitDx=0;exitDy=0;" edge="1" parent="1" source="WKZoduUk9wr_u4HZvVCL-75" target="WKZoduUk9wr_u4HZvVCL-73">
          <mxGeometry width="50" height="50" relative="1" as="geometry">
            <mxPoint x="-547" y="-430" as="sourcePoint" />
            <mxPoint x="-580" y="-510" as="targetPoint" />
          </mxGeometry>
        </mxCell>
        <mxCell id="WKZoduUk9wr_u4HZvVCL-79" value="AI component &lt;br&gt;(object detector)" style="shape=hexagon;perimeter=hexagonPerimeter2;whiteSpace=wrap;html=1;fixedSize=1;treeFolding=0;comic=0;" vertex="1" parent="1">
          <mxGeometry x="-980" y="-250" width="120" height="80" as="geometry" />
        </mxCell>
        <mxCell id="WKZoduUk9wr_u4HZvVCL-82" style="edgeStyle=none;rounded=0;orthogonalLoop=1;jettySize=auto;html=1;exitX=0.5;exitY=0;exitDx=0;exitDy=0;entryX=0.5;entryY=1;entryDx=0;entryDy=0;" edge="1" parent="1" source="WKZoduUk9wr_u4HZvVCL-80" target="WKZoduUk9wr_u4HZvVCL-64">
          <mxGeometry relative="1" as="geometry" />
        </mxCell>
        <mxCell id="WKZoduUk9wr_u4HZvVCL-83" style="edgeStyle=none;rounded=0;orthogonalLoop=1;jettySize=auto;html=1;exitX=1;exitY=0.5;exitDx=0;exitDy=0;" edge="1" parent="1" source="WKZoduUk9wr_u4HZvVCL-80" target="WKZoduUk9wr_u4HZvVCL-63">
          <mxGeometry relative="1" as="geometry" />
        </mxCell>
        <mxCell id="WKZoduUk9wr_u4HZvVCL-84" style="edgeStyle=none;rounded=0;orthogonalLoop=1;jettySize=auto;html=1;exitX=0;exitY=0.5;exitDx=0;exitDy=0;" edge="1" parent="1" source="WKZoduUk9wr_u4HZvVCL-80" target="WKZoduUk9wr_u4HZvVCL-62">
          <mxGeometry relative="1" as="geometry" />
        </mxCell>
        <mxCell id="WKZoduUk9wr_u4HZvVCL-80" value="" style="ellipse;whiteSpace=wrap;html=1;aspect=fixed;strokeColor=#000000;fillColor=#FF0000;" vertex="1" parent="1">
          <mxGeometry x="-930" y="-300" width="20" height="20" as="geometry" />
        </mxCell>
        <mxCell id="WKZoduUk9wr_u4HZvVCL-81" value="" style="endArrow=none;html=1;rounded=0;entryX=0.5;entryY=0;entryDx=0;entryDy=0;exitX=0.5;exitY=1;exitDx=0;exitDy=0;" edge="1" parent="1" source="WKZoduUk9wr_u4HZvVCL-80" target="WKZoduUk9wr_u4HZvVCL-79">
          <mxGeometry width="50" height="50" relative="1" as="geometry">
            <mxPoint x="-910" y="-410" as="sourcePoint" />
            <mxPoint x="-943" y="-490" as="targetPoint" />
          </mxGeometry>
        </mxCell>
        <mxCell id="WKZoduUk9wr_u4HZvVCL-85" value="AI component &lt;br&gt;behavior/detections out of distribution&lt;br&gt;(AI_status == ok,warn,crit)" style="shape=parallelogram;perimeter=parallelogramPerimeter;whiteSpace=wrap;html=1;fixedSize=1;fillColor=#FF9999;" vertex="1" parent="1">
          <mxGeometry x="-1460" y="-440" width="186" height="60" as="geometry" />
        </mxCell>
        <mxCell id="WKZoduUk9wr_u4HZvVCL-88" style="edgeStyle=none;rounded=0;orthogonalLoop=1;jettySize=auto;html=1;exitX=1;exitY=0.5;exitDx=0;exitDy=0;entryX=0;entryY=0.75;entryDx=0;entryDy=0;endArrow=block;endFill=0;" edge="1" parent="1" source="WKZoduUk9wr_u4HZvVCL-86" target="WKZoduUk9wr_u4HZvVCL-27">
          <mxGeometry relative="1" as="geometry" />
        </mxCell>
        <mxCell id="WKZoduUk9wr_u4HZvVCL-86" value="" style="ellipse;whiteSpace=wrap;html=1;aspect=fixed;" vertex="1" parent="1">
          <mxGeometry x="-1377" y="-530" width="20" height="20" as="geometry" />
        </mxCell>
        <mxCell id="WKZoduUk9wr_u4HZvVCL-87" value="" style="endArrow=none;html=1;rounded=0;entryX=0.5;entryY=1;entryDx=0;entryDy=0;exitX=0.5;exitY=0;exitDx=0;exitDy=0;" edge="1" parent="1" source="WKZoduUk9wr_u4HZvVCL-85" target="WKZoduUk9wr_u4HZvVCL-86">
          <mxGeometry width="50" height="50" relative="1" as="geometry">
            <mxPoint x="-1540" y="-210" as="sourcePoint" />
            <mxPoint x="-1490" y="-260" as="targetPoint" />
          </mxGeometry>
        </mxCell>
        <mxCell id="WKZoduUk9wr_u4HZvVCL-89" value="safe behaviour activated&lt;br&gt;(behaviour_cat = 1)" style="shape=parallelogram;perimeter=parallelogramPerimeter;whiteSpace=wrap;html=1;fixedSize=1;enumerate=1;" vertex="1" parent="1">
          <mxGeometry x="-1560" y="-250" width="186" height="60" as="geometry" />
        </mxCell>
        <mxCell id="WKZoduUk9wr_u4HZvVCL-92" style="edgeStyle=none;rounded=0;orthogonalLoop=1;jettySize=auto;html=1;exitX=0.5;exitY=0;exitDx=0;exitDy=0;endArrow=block;endFill=0;" edge="1" parent="1" source="WKZoduUk9wr_u4HZvVCL-90" target="WKZoduUk9wr_u4HZvVCL-85">
          <mxGeometry relative="1" as="geometry" />
        </mxCell>
        <mxCell id="WKZoduUk9wr_u4HZvVCL-90" value="" style="ellipse;whiteSpace=wrap;html=1;aspect=fixed;" vertex="1" parent="1">
          <mxGeometry x="-1377" y="-340" width="20" height="20" as="geometry" />
        </mxCell>
        <mxCell id="WKZoduUk9wr_u4HZvVCL-91" value="" style="endArrow=none;html=1;rounded=0;entryX=0;entryY=0.5;entryDx=0;entryDy=0;exitX=0.5;exitY=0;exitDx=0;exitDy=0;" edge="1" parent="1" source="WKZoduUk9wr_u4HZvVCL-89" target="WKZoduUk9wr_u4HZvVCL-90">
          <mxGeometry width="50" height="50" relative="1" as="geometry">
            <mxPoint x="-1520" y="-20" as="sourcePoint" />
            <mxPoint x="-1470" y="-70" as="targetPoint" />
          </mxGeometry>
        </mxCell>
        <mxCell id="WKZoduUk9wr_u4HZvVCL-93" value="AI model status of detections&lt;br&gt;(KL-divergence (of last _n detections &amp;gt; avg_distribution)" style="shape=parallelogram;perimeter=parallelogramPerimeter;whiteSpace=wrap;html=1;fixedSize=1;enumerate=1;" vertex="1" parent="1">
          <mxGeometry x="-1374" y="-250" width="194" height="60" as="geometry" />
        </mxCell>
        <mxCell id="WKZoduUk9wr_u4HZvVCL-95" value="" style="endArrow=none;html=1;rounded=0;entryX=1;entryY=0.5;entryDx=0;entryDy=0;exitX=0.5;exitY=0;exitDx=0;exitDy=0;" edge="1" parent="1" source="WKZoduUk9wr_u4HZvVCL-93" target="WKZoduUk9wr_u4HZvVCL-90">
          <mxGeometry width="50" height="50" relative="1" as="geometry">
            <mxPoint x="-1354" y="-20" as="sourcePoint" />
            <mxPoint x="-1197" y="-320" as="targetPoint" />
          </mxGeometry>
        </mxCell>
        <mxCell id="WKZoduUk9wr_u4HZvVCL-99" value="S1" style="shape=hexagon;perimeter=hexagonPerimeter2;whiteSpace=wrap;html=1;fixedSize=1;" vertex="1" parent="1">
          <mxGeometry x="-400" y="-260" width="60" height="40" as="geometry" />
        </mxCell>
        <mxCell id="WKZoduUk9wr_u4HZvVCL-103" style="edgeStyle=none;rounded=0;orthogonalLoop=1;jettySize=auto;html=1;exitX=0.5;exitY=0;exitDx=0;exitDy=0;entryX=0.5;entryY=1;entryDx=0;entryDy=0;endArrow=classic;endFill=1;" edge="1" parent="1" source="WKZoduUk9wr_u4HZvVCL-100" target="WKZoduUk9wr_u4HZvVCL-50">
          <mxGeometry relative="1" as="geometry" />
        </mxCell>
        <mxCell id="WKZoduUk9wr_u4HZvVCL-100" value="" style="ellipse;whiteSpace=wrap;html=1;aspect=fixed;strokeColor=#000000;fillColor=#FF0000;" vertex="1" parent="1">
          <mxGeometry x="-380" y="-330" width="20" height="20" as="geometry" />
        </mxCell>
        <mxCell id="WKZoduUk9wr_u4HZvVCL-101" value="" style="endArrow=none;html=1;rounded=0;entryX=0.5;entryY=0;entryDx=0;entryDy=0;exitX=0.5;exitY=1;exitDx=0;exitDy=0;" edge="1" parent="1" source="WKZoduUk9wr_u4HZvVCL-100" target="WKZoduUk9wr_u4HZvVCL-99">
          <mxGeometry width="50" height="50" relative="1" as="geometry">
            <mxPoint x="-330" y="-440" as="sourcePoint" />
            <mxPoint x="-363" y="-520" as="targetPoint" />
          </mxGeometry>
        </mxCell>
        <mxCell id="WKZoduUk9wr_u4HZvVCL-104" value="S2" style="shape=hexagon;perimeter=hexagonPerimeter2;whiteSpace=wrap;html=1;fixedSize=1;" vertex="1" parent="1">
          <mxGeometry x="-300" y="-260" width="60" height="40" as="geometry" />
        </mxCell>
        <mxCell id="WKZoduUk9wr_u4HZvVCL-107" style="edgeStyle=none;rounded=0;orthogonalLoop=1;jettySize=auto;html=1;exitX=0.5;exitY=0;exitDx=0;exitDy=0;entryX=0.5;entryY=1;entryDx=0;entryDy=0;endArrow=classic;endFill=1;" edge="1" parent="1" source="WKZoduUk9wr_u4HZvVCL-105" target="WKZoduUk9wr_u4HZvVCL-52">
          <mxGeometry relative="1" as="geometry" />
        </mxCell>
        <mxCell id="WKZoduUk9wr_u4HZvVCL-105" value="" style="ellipse;whiteSpace=wrap;html=1;aspect=fixed;strokeColor=#000000;fillColor=#FF0000;" vertex="1" parent="1">
          <mxGeometry x="-280" y="-330" width="20" height="20" as="geometry" />
        </mxCell>
        <mxCell id="WKZoduUk9wr_u4HZvVCL-106" value="" style="endArrow=none;html=1;rounded=0;entryX=0.5;entryY=0;entryDx=0;entryDy=0;exitX=0.5;exitY=1;exitDx=0;exitDy=0;" edge="1" parent="1" source="WKZoduUk9wr_u4HZvVCL-105" target="WKZoduUk9wr_u4HZvVCL-104">
          <mxGeometry width="50" height="50" relative="1" as="geometry">
            <mxPoint x="-230" y="-440" as="sourcePoint" />
            <mxPoint x="-263" y="-520" as="targetPoint" />
          </mxGeometry>
        </mxCell>
        <mxCell id="WKZoduUk9wr_u4HZvVCL-108" value="S_n" style="shape=hexagon;perimeter=hexagonPerimeter2;whiteSpace=wrap;html=1;fixedSize=1;" vertex="1" parent="1">
          <mxGeometry x="-190" y="-260" width="60" height="40" as="geometry" />
        </mxCell>
        <mxCell id="WKZoduUk9wr_u4HZvVCL-111" style="edgeStyle=none;rounded=0;orthogonalLoop=1;jettySize=auto;html=1;exitX=0.5;exitY=0;exitDx=0;exitDy=0;entryX=0.25;entryY=1;entryDx=0;entryDy=0;endArrow=classic;endFill=1;" edge="1" parent="1" source="WKZoduUk9wr_u4HZvVCL-109" target="WKZoduUk9wr_u4HZvVCL-51">
          <mxGeometry relative="1" as="geometry" />
        </mxCell>
        <mxCell id="WKZoduUk9wr_u4HZvVCL-109" value="" style="ellipse;whiteSpace=wrap;html=1;aspect=fixed;strokeColor=#000000;fillColor=#FF0000;" vertex="1" parent="1">
          <mxGeometry x="-170" y="-320" width="20" height="20" as="geometry" />
        </mxCell>
        <mxCell id="WKZoduUk9wr_u4HZvVCL-110" value="" style="endArrow=none;html=1;rounded=0;entryX=0.5;entryY=0;entryDx=0;entryDy=0;exitX=0.5;exitY=1;exitDx=0;exitDy=0;" edge="1" parent="1" source="WKZoduUk9wr_u4HZvVCL-109" target="WKZoduUk9wr_u4HZvVCL-108">
          <mxGeometry width="50" height="50" relative="1" as="geometry">
            <mxPoint x="-55" y="-430" as="sourcePoint" />
            <mxPoint x="-88" y="-510" as="targetPoint" />
          </mxGeometry>
        </mxCell>
        <mxCell id="WKZoduUk9wr_u4HZvVCL-112" value="EKF Algorithm" style="shape=hexagon;perimeter=hexagonPerimeter2;whiteSpace=wrap;html=1;fixedSize=1;treeFolding=0;comic=0;" vertex="1" parent="1">
          <mxGeometry x="-50" y="-490" width="120" height="50" as="geometry" />
        </mxCell>
        <mxCell id="WKZoduUk9wr_u4HZvVCL-116" style="edgeStyle=none;rounded=0;orthogonalLoop=1;jettySize=auto;html=1;exitX=0.5;exitY=0;exitDx=0;exitDy=0;entryX=0.457;entryY=1;entryDx=0;entryDy=0;entryPerimeter=0;endArrow=classic;endFill=1;" edge="1" parent="1" source="WKZoduUk9wr_u4HZvVCL-113" target="WKZoduUk9wr_u4HZvVCL-7">
          <mxGeometry relative="1" as="geometry" />
        </mxCell>
        <mxCell id="WKZoduUk9wr_u4HZvVCL-113" value="" style="ellipse;whiteSpace=wrap;html=1;aspect=fixed;strokeColor=#000000;fillColor=#FF0000;" vertex="1" parent="1">
          <mxGeometry y="-560" width="20" height="20" as="geometry" />
        </mxCell>
        <mxCell id="WKZoduUk9wr_u4HZvVCL-114" value="" style="endArrow=none;html=1;rounded=0;entryX=0.5;entryY=0;entryDx=0;entryDy=0;exitX=0.5;exitY=1;exitDx=0;exitDy=0;" edge="1" parent="1" source="WKZoduUk9wr_u4HZvVCL-113" target="WKZoduUk9wr_u4HZvVCL-112">
          <mxGeometry width="50" height="50" relative="1" as="geometry">
            <mxPoint x="20" y="-670" as="sourcePoint" />
            <mxPoint x="-13" y="-750" as="targetPoint" />
          </mxGeometry>
        </mxCell>
        <mxCell id="WKZoduUk9wr_u4HZvVCL-118" value="" style="shape=curlyBracket;whiteSpace=wrap;html=1;rounded=1;flipH=1;strokeColor=#000000;fillColor=#FF9999;rotation=90;" vertex="1" parent="1">
          <mxGeometry x="-275" y="-335" width="20" height="290" as="geometry" />
        </mxCell>
        <mxCell id="WKZoduUk9wr_u4HZvVCL-119" value="IMU, GPS, CAMERA,&lt;br&gt;LIDAR, ..." style="text;html=1;strokeColor=none;fillColor=none;align=center;verticalAlign=middle;whiteSpace=wrap;rounded=0;" vertex="1" parent="1">
          <mxGeometry x="-285" y="-180" width="45" height="90" as="geometry" />
        </mxCell>
        <mxCell id="WKZoduUk9wr_u4HZvVCL-120" value="Path planning alg&amp;nbsp;&lt;br&gt;(A* , RTT, etc)" style="shape=hexagon;perimeter=hexagonPerimeter2;whiteSpace=wrap;html=1;fixedSize=1;" vertex="1" parent="1">
          <mxGeometry x="310" y="-465" width="120" height="50" as="geometry" />
        </mxCell>
        <mxCell id="WKZoduUk9wr_u4HZvVCL-121" value="" style="ellipse;whiteSpace=wrap;html=1;aspect=fixed;strokeColor=#000000;fillColor=#FF0000;" vertex="1" parent="1">
          <mxGeometry x="360" y="-535" width="20" height="20" as="geometry" />
        </mxCell>
        <mxCell id="WKZoduUk9wr_u4HZvVCL-122" value="" style="endArrow=none;html=1;rounded=0;entryX=0.5;entryY=0;entryDx=0;entryDy=0;exitX=0.5;exitY=1;exitDx=0;exitDy=0;" edge="1" parent="1" source="WKZoduUk9wr_u4HZvVCL-121" target="WKZoduUk9wr_u4HZvVCL-120">
          <mxGeometry width="50" height="50" relative="1" as="geometry">
            <mxPoint x="380" y="-645" as="sourcePoint" />
            <mxPoint x="347" y="-725" as="targetPoint" />
          </mxGeometry>
        </mxCell>
        <mxCell id="WKZoduUk9wr_u4HZvVCL-123" value="free_collision trajectory does not exist&lt;br&gt;(behaviour_cat == 1)" style="shape=parallelogram;perimeter=parallelogramPerimeter;whiteSpace=wrap;html=1;fixedSize=1;fillColor=#FF9999;" vertex="1" parent="1">
          <mxGeometry x="880" y="-850" width="256" height="60" as="geometry" />
        </mxCell>
        <mxCell id="WKZoduUk9wr_u4HZvVCL-142" style="edgeStyle=none;rounded=0;orthogonalLoop=1;jettySize=auto;html=1;exitX=0.5;exitY=0;exitDx=0;exitDy=0;entryX=1;entryY=0.25;entryDx=0;entryDy=0;endArrow=blockThin;endFill=0;" edge="1" parent="1" source="WKZoduUk9wr_u4HZvVCL-124" target="WKZoduUk9wr_u4HZvVCL-3">
          <mxGeometry relative="1" as="geometry" />
        </mxCell>
        <mxCell id="WKZoduUk9wr_u4HZvVCL-124" value="" style="ellipse;whiteSpace=wrap;html=1;aspect=fixed;direction=north;" vertex="1" parent="1">
          <mxGeometry x="990" y="-890" width="20" height="20" as="geometry" />
        </mxCell>
        <mxCell id="WKZoduUk9wr_u4HZvVCL-125" value="" style="endArrow=none;html=1;rounded=0;entryX=0;entryY=0.5;entryDx=0;entryDy=0;exitX=0.5;exitY=0;exitDx=0;exitDy=0;" edge="1" parent="1" source="WKZoduUk9wr_u4HZvVCL-123" target="WKZoduUk9wr_u4HZvVCL-124">
          <mxGeometry width="50" height="50" relative="1" as="geometry">
            <mxPoint x="700" y="-430" as="sourcePoint" />
            <mxPoint x="750" y="-480" as="targetPoint" />
          </mxGeometry>
        </mxCell>
        <mxCell id="WKZoduUk9wr_u4HZvVCL-126" value="failsafe behaviour started &lt;br&gt;(failsafe_active_1 =bool)" style="shape=parallelogram;perimeter=parallelogramPerimeter;whiteSpace=wrap;html=1;fixedSize=1;enumerate=1;" vertex="1" parent="1">
          <mxGeometry x="950" y="-630" width="186" height="60" as="geometry" />
        </mxCell>
        <mxCell id="WKZoduUk9wr_u4HZvVCL-127" style="edgeStyle=none;rounded=0;orthogonalLoop=1;jettySize=auto;html=1;exitX=0.5;exitY=0;exitDx=0;exitDy=0;endArrow=block;endFill=0;" edge="1" parent="1" source="WKZoduUk9wr_u4HZvVCL-128" target="WKZoduUk9wr_u4HZvVCL-123">
          <mxGeometry relative="1" as="geometry" />
        </mxCell>
        <mxCell id="WKZoduUk9wr_u4HZvVCL-128" value="" style="ellipse;whiteSpace=wrap;html=1;aspect=fixed;" vertex="1" parent="1">
          <mxGeometry x="1033" y="-750" width="20" height="20" as="geometry" />
        </mxCell>
        <mxCell id="WKZoduUk9wr_u4HZvVCL-129" value="" style="endArrow=none;html=1;rounded=0;entryX=0.5;entryY=1;entryDx=0;entryDy=0;exitX=0.5;exitY=0;exitDx=0;exitDy=0;" edge="1" parent="1" source="WKZoduUk9wr_u4HZvVCL-126" target="WKZoduUk9wr_u4HZvVCL-128">
          <mxGeometry width="50" height="50" relative="1" as="geometry">
            <mxPoint x="720" y="-240" as="sourcePoint" />
            <mxPoint x="770" y="-290" as="targetPoint" />
          </mxGeometry>
        </mxCell>
        <mxCell id="WKZoduUk9wr_u4HZvVCL-132" value="free collision traj not &lt;br&gt;computed in time&lt;br&gt;(last_time_update_from_new_map_given)" style="shape=parallelogram;perimeter=parallelogramPerimeter;whiteSpace=wrap;html=1;fixedSize=1;fillColor=#FF9999;" vertex="1" parent="1">
          <mxGeometry x="620" y="-665" width="280" height="60" as="geometry" />
        </mxCell>
        <mxCell id="WKZoduUk9wr_u4HZvVCL-141" style="edgeStyle=none;rounded=0;orthogonalLoop=1;jettySize=auto;html=1;exitX=0.5;exitY=0;exitDx=0;exitDy=0;entryX=1;entryY=0.75;entryDx=0;entryDy=0;endArrow=blockThin;endFill=0;" edge="1" parent="1" source="WKZoduUk9wr_u4HZvVCL-133" target="WKZoduUk9wr_u4HZvVCL-3">
          <mxGeometry relative="1" as="geometry" />
        </mxCell>
        <mxCell id="WKZoduUk9wr_u4HZvVCL-133" value="" style="ellipse;whiteSpace=wrap;html=1;aspect=fixed;" vertex="1" parent="1">
          <mxGeometry x="743" y="-755" width="20" height="20" as="geometry" />
        </mxCell>
        <mxCell id="WKZoduUk9wr_u4HZvVCL-134" value="" style="endArrow=none;html=1;rounded=0;entryX=0.5;entryY=1;entryDx=0;entryDy=0;exitX=0.5;exitY=0;exitDx=0;exitDy=0;" edge="1" parent="1" source="WKZoduUk9wr_u4HZvVCL-132" target="WKZoduUk9wr_u4HZvVCL-133">
          <mxGeometry width="50" height="50" relative="1" as="geometry">
            <mxPoint x="506" y="-325" as="sourcePoint" />
            <mxPoint x="556" y="-375" as="targetPoint" />
          </mxGeometry>
        </mxCell>
        <mxCell id="WKZoduUk9wr_u4HZvVCL-135" value="r understand if dangerous&lt;br&gt;is_dangerous == bool" style="shape=parallelogram;perimeter=parallelogramPerimeter;whiteSpace=wrap;html=1;fixedSize=1;enumerate=1;" vertex="1" parent="1">
          <mxGeometry x="530" y="-480" width="186" height="60" as="geometry" />
        </mxCell>
        <mxCell id="WKZoduUk9wr_u4HZvVCL-136" style="edgeStyle=none;rounded=0;orthogonalLoop=1;jettySize=auto;html=1;exitX=0.5;exitY=0;exitDx=0;exitDy=0;endArrow=block;endFill=0;" edge="1" parent="1" source="WKZoduUk9wr_u4HZvVCL-137" target="WKZoduUk9wr_u4HZvVCL-132">
          <mxGeometry relative="1" as="geometry" />
        </mxCell>
        <mxCell id="WKZoduUk9wr_u4HZvVCL-137" value="" style="ellipse;whiteSpace=wrap;html=1;aspect=fixed;" vertex="1" parent="1">
          <mxGeometry x="751" y="-560" width="20" height="20" as="geometry" />
        </mxCell>
        <mxCell id="WKZoduUk9wr_u4HZvVCL-138" value="" style="endArrow=none;html=1;rounded=0;entryX=0;entryY=0.5;entryDx=0;entryDy=0;exitX=0.5;exitY=0;exitDx=0;exitDy=0;" edge="1" parent="1" source="WKZoduUk9wr_u4HZvVCL-135" target="WKZoduUk9wr_u4HZvVCL-137">
          <mxGeometry width="50" height="50" relative="1" as="geometry">
            <mxPoint x="526" y="-135" as="sourcePoint" />
            <mxPoint x="576" y="-185" as="targetPoint" />
          </mxGeometry>
        </mxCell>
        <mxCell id="WKZoduUk9wr_u4HZvVCL-139" value="activated safe behaviour&amp;nbsp;&lt;br&gt;(behvaiour_cat == 1)" style="shape=parallelogram;perimeter=parallelogramPerimeter;whiteSpace=wrap;html=1;fixedSize=1;enumerate=1;" vertex="1" parent="1">
          <mxGeometry x="746" y="-475" width="194" height="60" as="geometry" />
        </mxCell>
        <mxCell id="WKZoduUk9wr_u4HZvVCL-140" value="" style="endArrow=none;html=1;rounded=0;entryX=1;entryY=0.5;entryDx=0;entryDy=0;exitX=0.5;exitY=0;exitDx=0;exitDy=0;" edge="1" parent="1" source="WKZoduUk9wr_u4HZvVCL-139" target="WKZoduUk9wr_u4HZvVCL-137">
          <mxGeometry width="50" height="50" relative="1" as="geometry">
            <mxPoint x="692" y="-135" as="sourcePoint" />
            <mxPoint x="849" y="-435" as="targetPoint" />
          </mxGeometry>
        </mxCell>
        <mxCell id="WKZoduUk9wr_u4HZvVCL-143" value="r safe_d = d" style="shape=parallelogram;perimeter=parallelogramPerimeter;whiteSpace=wrap;html=1;fixedSize=1;enumerate=1;" vertex="1" parent="1">
          <mxGeometry x="720" y="-330" width="126" height="25" as="geometry" />
        </mxCell>
        <mxCell id="WKZoduUk9wr_u4HZvVCL-148" style="edgeStyle=none;rounded=0;orthogonalLoop=1;jettySize=auto;html=1;exitX=0.5;exitY=0;exitDx=0;exitDy=0;endArrow=blockThin;endFill=0;entryX=0.5;entryY=1;entryDx=0;entryDy=0;" edge="1" parent="1" source="WKZoduUk9wr_u4HZvVCL-144" target="WKZoduUk9wr_u4HZvVCL-139">
          <mxGeometry relative="1" as="geometry">
            <mxPoint x="840" y="-410" as="targetPoint" />
          </mxGeometry>
        </mxCell>
        <mxCell id="WKZoduUk9wr_u4HZvVCL-144" value="" style="ellipse;whiteSpace=wrap;html=1;aspect=fixed;" vertex="1" parent="1">
          <mxGeometry x="831" y="-380" width="20" height="20" as="geometry" />
        </mxCell>
        <mxCell id="WKZoduUk9wr_u4HZvVCL-145" value="" style="endArrow=none;html=1;rounded=0;entryX=0;entryY=0.5;entryDx=0;entryDy=0;exitX=0.5;exitY=0;exitDx=0;exitDy=0;" edge="1" parent="1" source="WKZoduUk9wr_u4HZvVCL-143" target="WKZoduUk9wr_u4HZvVCL-144">
          <mxGeometry width="50" height="50" relative="1" as="geometry">
            <mxPoint x="606" y="45" as="sourcePoint" />
            <mxPoint x="656" y="-5" as="targetPoint" />
          </mxGeometry>
        </mxCell>
        <mxCell id="WKZoduUk9wr_u4HZvVCL-146" value="r max_v&amp;nbsp; = v&amp;nbsp;" style="shape=parallelogram;perimeter=parallelogramPerimeter;whiteSpace=wrap;html=1;fixedSize=1;enumerate=1;" vertex="1" parent="1">
          <mxGeometry x="851" y="-330" width="120" height="25" as="geometry" />
        </mxCell>
        <mxCell id="WKZoduUk9wr_u4HZvVCL-147" value="" style="endArrow=none;html=1;rounded=0;entryX=1;entryY=0.5;entryDx=0;entryDy=0;exitX=0.5;exitY=0;exitDx=0;exitDy=0;" edge="1" parent="1" source="WKZoduUk9wr_u4HZvVCL-146" target="WKZoduUk9wr_u4HZvVCL-144">
          <mxGeometry width="50" height="50" relative="1" as="geometry">
            <mxPoint x="772" y="45" as="sourcePoint" />
            <mxPoint x="929" y="-255" as="targetPoint" />
          </mxGeometry>
        </mxCell>
        <mxCell id="WKZoduUk9wr_u4HZvVCL-149" value="planner" style="shape=hexagon;perimeter=hexagonPerimeter2;whiteSpace=wrap;html=1;fixedSize=1;" vertex="1" parent="1">
          <mxGeometry x="670" y="-130" width="120" height="50" as="geometry" />
        </mxCell>
        <mxCell id="WKZoduUk9wr_u4HZvVCL-152" style="edgeStyle=none;rounded=0;orthogonalLoop=1;jettySize=auto;html=1;exitX=1;exitY=0.5;exitDx=0;exitDy=0;endArrow=blockThin;endFill=0;" edge="1" parent="1" source="WKZoduUk9wr_u4HZvVCL-150" target="WKZoduUk9wr_u4HZvVCL-146">
          <mxGeometry relative="1" as="geometry" />
        </mxCell>
        <mxCell id="WKZoduUk9wr_u4HZvVCL-153" style="edgeStyle=none;rounded=0;orthogonalLoop=1;jettySize=auto;html=1;exitX=0.5;exitY=0;exitDx=0;exitDy=0;endArrow=blockThin;endFill=0;" edge="1" parent="1" source="WKZoduUk9wr_u4HZvVCL-150" target="WKZoduUk9wr_u4HZvVCL-143">
          <mxGeometry relative="1" as="geometry" />
        </mxCell>
        <mxCell id="WKZoduUk9wr_u4HZvVCL-158" style="edgeStyle=none;rounded=0;orthogonalLoop=1;jettySize=auto;html=1;exitX=0;exitY=0.5;exitDx=0;exitDy=0;entryX=0.536;entryY=0.995;entryDx=0;entryDy=0;entryPerimeter=0;endArrow=blockThin;endFill=0;" edge="1" parent="1" source="WKZoduUk9wr_u4HZvVCL-150" target="WKZoduUk9wr_u4HZvVCL-154">
          <mxGeometry relative="1" as="geometry" />
        </mxCell>
        <mxCell id="WKZoduUk9wr_u4HZvVCL-150" value="" style="ellipse;whiteSpace=wrap;html=1;aspect=fixed;strokeColor=#000000;fillColor=#FF0000;" vertex="1" parent="1">
          <mxGeometry x="720" y="-200" width="20" height="20" as="geometry" />
        </mxCell>
        <mxCell id="WKZoduUk9wr_u4HZvVCL-151" value="" style="endArrow=none;html=1;rounded=0;entryX=0.5;entryY=0;entryDx=0;entryDy=0;exitX=0.5;exitY=1;exitDx=0;exitDy=0;" edge="1" parent="1" source="WKZoduUk9wr_u4HZvVCL-150" target="WKZoduUk9wr_u4HZvVCL-149">
          <mxGeometry width="50" height="50" relative="1" as="geometry">
            <mxPoint x="740" y="-310" as="sourcePoint" />
            <mxPoint x="707" y="-390" as="targetPoint" />
          </mxGeometry>
        </mxCell>
        <mxCell id="WKZoduUk9wr_u4HZvVCL-154" value="trajectory for next n timesteps computed&lt;br&gt;(timesteps_of_path_planning_computed &amp;gt;= min_timesteps )" style="shape=parallelogram;perimeter=parallelogramPerimeter;whiteSpace=wrap;html=1;fixedSize=1;enumerate=1;" vertex="1" parent="1">
          <mxGeometry x="420" y="-320" width="266" height="60" as="geometry" />
        </mxCell>
        <mxCell id="WKZoduUk9wr_u4HZvVCL-157" style="edgeStyle=none;rounded=0;orthogonalLoop=1;jettySize=auto;html=1;exitX=0.5;exitY=0;exitDx=0;exitDy=0;entryX=0.39;entryY=0.984;entryDx=0;entryDy=0;entryPerimeter=0;endArrow=blockThin;endFill=0;" edge="1" parent="1" source="WKZoduUk9wr_u4HZvVCL-155" target="WKZoduUk9wr_u4HZvVCL-135">
          <mxGeometry relative="1" as="geometry" />
        </mxCell>
        <mxCell id="WKZoduUk9wr_u4HZvVCL-155" value="" style="ellipse;whiteSpace=wrap;html=1;aspect=fixed;" vertex="1" parent="1">
          <mxGeometry x="543" y="-370" width="20" height="20" as="geometry" />
        </mxCell>
        <mxCell id="WKZoduUk9wr_u4HZvVCL-156" value="" style="endArrow=none;html=1;rounded=0;entryX=0.5;entryY=1;entryDx=0;entryDy=0;exitX=0.5;exitY=0;exitDx=0;exitDy=0;" edge="1" parent="1" source="WKZoduUk9wr_u4HZvVCL-154" target="WKZoduUk9wr_u4HZvVCL-155">
          <mxGeometry width="50" height="50" relative="1" as="geometry">
            <mxPoint x="230" y="110" as="sourcePoint" />
            <mxPoint x="280" y="60" as="targetPoint" />
          </mxGeometry>
        </mxCell>
        <mxCell id="WKZoduUk9wr_u4HZvVCL-159" value="Obstacle" style="shape=parallelogram;perimeter=parallelogramPerimeter;whiteSpace=wrap;html=1;fixedSize=1;fillColor=#FF9999;" vertex="1" parent="1">
          <mxGeometry x="-1560" y="-1060" width="186" height="60" as="geometry" />
        </mxCell>
        <mxCell id="WKZoduUk9wr_u4HZvVCL-160" value="Goal&lt;br&gt;(value_function)" style="shape=parallelogram;perimeter=parallelogramPerimeter;whiteSpace=wrap;html=1;fixedSize=1;enumerate=1;" vertex="1" parent="1">
          <mxGeometry x="-1547" y="-1130" width="190" height="60" as="geometry" />
        </mxCell>
        <mxCell id="WKZoduUk9wr_u4HZvVCL-163" style="edgeStyle=none;rounded=0;orthogonalLoop=1;jettySize=auto;html=1;exitX=0.5;exitY=0;exitDx=0;exitDy=0;" edge="1" parent="1" source="WKZoduUk9wr_u4HZvVCL-164">
          <mxGeometry relative="1" as="geometry">
            <mxPoint x="-1417" y="-960" as="targetPoint" />
          </mxGeometry>
        </mxCell>
        <mxCell id="WKZoduUk9wr_u4HZvVCL-164" value="" style="ellipse;whiteSpace=wrap;html=1;aspect=fixed;direction=south;" vertex="1" parent="1">
          <mxGeometry x="-1475.92" y="-970" width="20" height="20" as="geometry" />
        </mxCell>
        <mxCell id="WKZoduUk9wr_u4HZvVCL-165" value="" style="endArrow=none;html=1;rounded=0;entryX=0.5;entryY=1;entryDx=0;entryDy=0;" edge="1" parent="1" target="WKZoduUk9wr_u4HZvVCL-164">
          <mxGeometry width="50" height="50" relative="1" as="geometry">
            <mxPoint x="-1517" y="-960" as="sourcePoint" />
            <mxPoint x="-1572.92" y="-700" as="targetPoint" />
          </mxGeometry>
        </mxCell>
        <mxCell id="WKZoduUk9wr_u4HZvVCL-166" value="Refine" style="text;html=1;strokeColor=none;fillColor=none;align=center;verticalAlign=middle;whiteSpace=wrap;rounded=0;comic=0;" vertex="1" parent="1">
          <mxGeometry x="-1397" y="-975" width="60" height="30" as="geometry" />
        </mxCell>
        <mxCell id="WKZoduUk9wr_u4HZvVCL-170" value="Agent" style="shape=hexagon;perimeter=hexagonPerimeter2;whiteSpace=wrap;html=1;fixedSize=1;treeFolding=0;comic=0;" vertex="1" parent="1">
          <mxGeometry x="-1527" y="-930" width="120" height="40" as="geometry" />
        </mxCell>
      </root>
    </mxGraphModel>
  </diagram>
</mxfile>
